<mxfile host="Electron" modified="2023-05-15T16:04:23.011Z" agent="Mozilla/5.0 (Macintosh; Intel Mac OS X 10_15_7) AppleWebKit/537.36 (KHTML, like Gecko) draw.io/21.2.8 Chrome/112.0.5615.165 Electron/24.2.0 Safari/537.36" etag="8RCEVdyCVbvU8SD8xP4n" version="21.2.8" type="device">
  <diagram name="Page-1" id="zF6Dcy2hsxiDdT67BAy5">
    <mxGraphModel dx="1013" dy="776" grid="1" gridSize="10" guides="1" tooltips="1" connect="1" arrows="1" fold="1" page="1" pageScale="1" pageWidth="827" pageHeight="1169" math="0" shadow="0">
      <root>
        <mxCell id="0" />
        <mxCell id="1" parent="0" />
        <mxCell id="oGka9AGOVdC37x4FYQGh-33" value="" style="group" vertex="1" connectable="0" parent="1">
          <mxGeometry x="400" y="310" width="84.79683543641829" height="152.15913606911448" as="geometry" />
        </mxCell>
        <mxCell id="oGka9AGOVdC37x4FYQGh-29" value="" style="group" vertex="1" connectable="0" parent="oGka9AGOVdC37x4FYQGh-33">
          <mxGeometry width="84.79683543641829" height="78" as="geometry" />
        </mxCell>
        <mxCell id="oGka9AGOVdC37x4FYQGh-27" value="" style="html=1;verticalLabelPosition=bottom;align=center;labelBackgroundColor=#ffffff;verticalAlign=top;strokeWidth=2;strokeColor=#FF3333;shadow=0;dashed=0;shape=mxgraph.ios7.icons.data;" vertex="1" parent="oGka9AGOVdC37x4FYQGh-29">
          <mxGeometry width="84.79683543641826" height="78" as="geometry" />
        </mxCell>
        <mxCell id="oGka9AGOVdC37x4FYQGh-28" value="" style="whiteSpace=wrap;html=1;strokeColor=none;imageAspect=0;connectable=0;allowArrows=0;glass=0;rounded=0;strokeWidth=0;" vertex="1" parent="oGka9AGOVdC37x4FYQGh-29">
          <mxGeometry x="0.7800000000000864" y="25" width="82.7" height="39" as="geometry" />
        </mxCell>
        <mxCell id="oGka9AGOVdC37x4FYQGh-31" value="Database" style="rounded=0;arcSize=10;whiteSpace=wrap;html=1;align=center;glass=0;sketch=1;curveFitting=1;jiggle=2;" vertex="1" parent="oGka9AGOVdC37x4FYQGh-29">
          <mxGeometry x="7.065758702026983" y="31.5" width="70.66402953034854" height="26" as="geometry" />
        </mxCell>
        <mxCell id="oGka9AGOVdC37x4FYQGh-47" value="" style="group" vertex="1" connectable="0" parent="1">
          <mxGeometry x="198.82" y="220" width="192.36" height="160" as="geometry" />
        </mxCell>
        <mxCell id="oGka9AGOVdC37x4FYQGh-26" value="&lt;pre style=&quot;font-size: 14px;&quot;&gt;RAC Node&lt;/pre&gt;" style="rounded=1;whiteSpace=wrap;html=1;verticalAlign=bottom;horizontal=1;fontSize=14;labelPosition=center;verticalLabelPosition=top;align=center;" vertex="1" parent="oGka9AGOVdC37x4FYQGh-47">
          <mxGeometry width="192.36" height="160" as="geometry" />
        </mxCell>
        <mxCell id="oGka9AGOVdC37x4FYQGh-36" value="Operating System" style="rounded=1;whiteSpace=wrap;html=1;fillColor=#f5f5f5;fontColor=#333333;strokeColor=#666666;sketch=1;curveFitting=1;jiggle=2;" vertex="1" parent="oGka9AGOVdC37x4FYQGh-47">
          <mxGeometry x="11.180000000000007" y="130" width="170" height="20.64" as="geometry" />
        </mxCell>
        <mxCell id="oGka9AGOVdC37x4FYQGh-37" value="Grid Infrastructure" style="rounded=1;whiteSpace=wrap;html=1;verticalAlign=top;fillColor=#dae8fc;strokeColor=#6c8ebf;sketch=1;curveFitting=1;jiggle=2;" vertex="1" parent="oGka9AGOVdC37x4FYQGh-47">
          <mxGeometry x="11.180000000000007" y="9.680000000000007" width="170" height="100.32" as="geometry" />
        </mxCell>
        <mxCell id="oGka9AGOVdC37x4FYQGh-38" value="ASM" style="rounded=1;whiteSpace=wrap;html=1;fillColor=#d5e8d4;strokeColor=#82b366;sketch=1;curveFitting=1;jiggle=2;" vertex="1" parent="oGka9AGOVdC37x4FYQGh-47">
          <mxGeometry x="11.18" y="90" width="38.82" height="20" as="geometry" />
        </mxCell>
        <mxCell id="oGka9AGOVdC37x4FYQGh-39" value="CSSD" style="rounded=1;whiteSpace=wrap;html=1;fillColor=#ffe6cc;strokeColor=#d79b00;sketch=1;curveFitting=1;jiggle=2;" vertex="1" parent="oGka9AGOVdC37x4FYQGh-47">
          <mxGeometry x="51.36" y="90" width="48.64" height="20" as="geometry" />
        </mxCell>
        <mxCell id="oGka9AGOVdC37x4FYQGh-40" value="Oracle Homes" style="shape=process;whiteSpace=wrap;html=1;backgroundOutline=1;sketch=1;curveFitting=1;jiggle=2;fillColor=#f8cecc;strokeColor=#b85450;" vertex="1" parent="oGka9AGOVdC37x4FYQGh-47">
          <mxGeometry x="11.180000000000007" y="110" width="170" height="20" as="geometry" />
        </mxCell>
        <mxCell id="oGka9AGOVdC37x4FYQGh-42" value="Listener" style="shape=parallelogram;perimeter=parallelogramPerimeter;whiteSpace=wrap;html=1;fixedSize=1;sketch=1;curveFitting=1;jiggle=2;fillColor=#e1d5e7;strokeColor=#9673a6;" vertex="1" parent="oGka9AGOVdC37x4FYQGh-47">
          <mxGeometry x="30.180000000000007" y="39.68000000000001" width="80" height="20" as="geometry" />
        </mxCell>
        <mxCell id="oGka9AGOVdC37x4FYQGh-44" value="&lt;b&gt;Instance&lt;/b&gt;" style="shape=trapezoid;perimeter=trapezoidPerimeter;whiteSpace=wrap;html=1;fixedSize=1;sketch=1;curveFitting=1;jiggle=2;fillColor=#bac8d3;strokeColor=#23445d;" vertex="1" parent="oGka9AGOVdC37x4FYQGh-47">
          <mxGeometry x="11.180000000000007" y="59.68000000000001" width="170" height="30" as="geometry" />
        </mxCell>
        <mxCell id="oGka9AGOVdC37x4FYQGh-46" value="SCAN" style="shape=trapezoid;perimeter=trapezoidPerimeter;whiteSpace=wrap;html=1;fixedSize=1;sketch=1;curveFitting=1;jiggle=2;fillColor=#ffff88;strokeColor=#36393d;" vertex="1" parent="oGka9AGOVdC37x4FYQGh-47">
          <mxGeometry x="86.18" y="39.68000000000001" width="76" height="20" as="geometry" />
        </mxCell>
        <mxCell id="oGka9AGOVdC37x4FYQGh-78" value="CRSD" style="rounded=1;whiteSpace=wrap;html=1;fillColor=#cdeb8b;strokeColor=#36393d;sketch=1;curveFitting=1;jiggle=2;" vertex="1" parent="oGka9AGOVdC37x4FYQGh-47">
          <mxGeometry x="100" y="90" width="40" height="20" as="geometry" />
        </mxCell>
        <mxCell id="oGka9AGOVdC37x4FYQGh-80" value="OCR" style="rounded=1;whiteSpace=wrap;html=1;fillColor=#cdeb8b;strokeColor=#36393d;sketch=1;curveFitting=1;jiggle=2;" vertex="1" parent="oGka9AGOVdC37x4FYQGh-47">
          <mxGeometry x="140" y="90" width="40" height="20" as="geometry" />
        </mxCell>
        <mxCell id="oGka9AGOVdC37x4FYQGh-48" value="" style="group" vertex="1" connectable="0" parent="1">
          <mxGeometry x="490" y="220" width="192.36" height="160" as="geometry" />
        </mxCell>
        <mxCell id="oGka9AGOVdC37x4FYQGh-49" value="&lt;pre style=&quot;font-size: 14px;&quot;&gt;RAC Node&lt;/pre&gt;" style="rounded=1;whiteSpace=wrap;html=1;verticalAlign=bottom;horizontal=1;fontSize=14;labelPosition=center;verticalLabelPosition=top;align=center;" vertex="1" parent="oGka9AGOVdC37x4FYQGh-48">
          <mxGeometry width="192.36" height="160" as="geometry" />
        </mxCell>
        <mxCell id="oGka9AGOVdC37x4FYQGh-50" value="Operating System" style="rounded=1;whiteSpace=wrap;html=1;fillColor=#f5f5f5;fontColor=#333333;strokeColor=#666666;sketch=1;curveFitting=1;jiggle=2;" vertex="1" parent="oGka9AGOVdC37x4FYQGh-48">
          <mxGeometry x="11.180000000000007" y="130" width="170" height="20.64" as="geometry" />
        </mxCell>
        <mxCell id="oGka9AGOVdC37x4FYQGh-51" value="Grid Infrastructure" style="rounded=1;whiteSpace=wrap;html=1;verticalAlign=top;fillColor=#dae8fc;strokeColor=#6c8ebf;sketch=1;curveFitting=1;jiggle=2;" vertex="1" parent="oGka9AGOVdC37x4FYQGh-48">
          <mxGeometry x="11.180000000000007" y="9.680000000000007" width="170" height="100.32" as="geometry" />
        </mxCell>
        <mxCell id="oGka9AGOVdC37x4FYQGh-52" value="ASM" style="rounded=1;whiteSpace=wrap;html=1;fillColor=#d5e8d4;strokeColor=#82b366;sketch=1;curveFitting=1;jiggle=2;" vertex="1" parent="oGka9AGOVdC37x4FYQGh-48">
          <mxGeometry x="11.18" y="90" width="38.82" height="20" as="geometry" />
        </mxCell>
        <mxCell id="oGka9AGOVdC37x4FYQGh-53" value="CSSD" style="rounded=1;whiteSpace=wrap;html=1;fillColor=#ffe6cc;strokeColor=#d79b00;sketch=1;curveFitting=1;jiggle=2;" vertex="1" parent="oGka9AGOVdC37x4FYQGh-48">
          <mxGeometry x="50.18" y="90" width="49.82" height="20" as="geometry" />
        </mxCell>
        <mxCell id="oGka9AGOVdC37x4FYQGh-54" value="Oracle Homes" style="shape=process;whiteSpace=wrap;html=1;backgroundOutline=1;sketch=1;curveFitting=1;jiggle=2;fillColor=#f8cecc;strokeColor=#b85450;" vertex="1" parent="oGka9AGOVdC37x4FYQGh-48">
          <mxGeometry x="11.180000000000007" y="110" width="170" height="20" as="geometry" />
        </mxCell>
        <mxCell id="oGka9AGOVdC37x4FYQGh-55" value="Listener" style="shape=parallelogram;perimeter=parallelogramPerimeter;whiteSpace=wrap;html=1;fixedSize=1;sketch=1;curveFitting=1;jiggle=2;fillColor=#e1d5e7;strokeColor=#9673a6;" vertex="1" parent="oGka9AGOVdC37x4FYQGh-48">
          <mxGeometry x="30.180000000000007" y="39.68000000000001" width="80" height="20" as="geometry" />
        </mxCell>
        <mxCell id="oGka9AGOVdC37x4FYQGh-56" value="&lt;b&gt;Instance&lt;/b&gt;" style="shape=trapezoid;perimeter=trapezoidPerimeter;whiteSpace=wrap;html=1;fixedSize=1;sketch=1;curveFitting=1;jiggle=2;fillColor=#bac8d3;strokeColor=#23445d;" vertex="1" parent="oGka9AGOVdC37x4FYQGh-48">
          <mxGeometry x="11.180000000000007" y="59.68000000000001" width="170" height="30" as="geometry" />
        </mxCell>
        <mxCell id="oGka9AGOVdC37x4FYQGh-57" value="SCAN" style="shape=trapezoid;perimeter=trapezoidPerimeter;whiteSpace=wrap;html=1;fixedSize=1;sketch=1;curveFitting=1;jiggle=2;fillColor=#ffff88;strokeColor=#36393d;" vertex="1" parent="oGka9AGOVdC37x4FYQGh-48">
          <mxGeometry x="86.18" y="39.68000000000001" width="76" height="20" as="geometry" />
        </mxCell>
        <mxCell id="oGka9AGOVdC37x4FYQGh-79" value="CRSD" style="rounded=1;whiteSpace=wrap;html=1;fillColor=#cdeb8b;strokeColor=#36393d;sketch=1;curveFitting=1;jiggle=2;" vertex="1" parent="oGka9AGOVdC37x4FYQGh-48">
          <mxGeometry x="98.82" y="89.68" width="41.18" height="20" as="geometry" />
        </mxCell>
        <mxCell id="oGka9AGOVdC37x4FYQGh-81" value="OCR" style="rounded=1;whiteSpace=wrap;html=1;fillColor=#cdeb8b;strokeColor=#36393d;sketch=1;curveFitting=1;jiggle=2;" vertex="1" parent="oGka9AGOVdC37x4FYQGh-48">
          <mxGeometry x="140" y="89.68" width="41.18" height="20" as="geometry" />
        </mxCell>
        <mxCell id="oGka9AGOVdC37x4FYQGh-63" style="edgeStyle=orthogonalEdgeStyle;rounded=0;orthogonalLoop=1;jettySize=auto;html=1;exitX=0.5;exitY=0;exitDx=0;exitDy=0;entryX=0.5;entryY=1;entryDx=0;entryDy=0;startArrow=classic;startFill=1;fillColor=#1ba1e2;strokeColor=#006EAF;sketch=1;curveFitting=1;jiggle=2;" edge="1" parent="1" source="oGka9AGOVdC37x4FYQGh-58" target="oGka9AGOVdC37x4FYQGh-59">
          <mxGeometry relative="1" as="geometry" />
        </mxCell>
        <mxCell id="oGka9AGOVdC37x4FYQGh-58" value="Application" style="swimlane;horizontal=0;whiteSpace=wrap;html=1;" vertex="1" parent="1">
          <mxGeometry x="40" y="310" width="80" height="70" as="geometry" />
        </mxCell>
        <mxCell id="oGka9AGOVdC37x4FYQGh-73" value="" style="group" vertex="1" connectable="0" parent="oGka9AGOVdC37x4FYQGh-58">
          <mxGeometry x="20" width="60" height="70" as="geometry" />
        </mxCell>
        <mxCell id="oGka9AGOVdC37x4FYQGh-74" value="&lt;font style=&quot;font-size: 11px;&quot; face=&quot;Comic Sans MS&quot;&gt;&lt;b style=&quot;&quot;&gt;&lt;span style=&quot;&quot;&gt;Query&lt;/span&gt;&lt;br&gt;&lt;span style=&quot;&quot;&gt;Brews&lt;/span&gt;&lt;br&gt;&lt;font style=&quot;font-size: 7px;&quot;&gt;1pt&lt;/font&gt;&lt;br&gt;&lt;/b&gt;&lt;/font&gt;" style="shape=trapezoid;perimeter=trapezoidPerimeter;whiteSpace=wrap;html=1;fixedSize=1;direction=west;fillColor=#fff2cc;gradientColor=#ffd966;strokeColor=#000000;size=10;verticalAlign=bottom;container=0;" vertex="1" parent="oGka9AGOVdC37x4FYQGh-73">
          <mxGeometry x="10.443956043956042" y="14.202898550724633" width="42.72527472527473" height="55.79710144927535" as="geometry" />
        </mxCell>
        <mxCell id="oGka9AGOVdC37x4FYQGh-75" value="" style="ellipse;shape=cloud;whiteSpace=wrap;html=1;fillColor=#fff2cc;gradientColor=#ffd966;strokeColor=#d6b656;container=0;" vertex="1" parent="oGka9AGOVdC37x4FYQGh-73">
          <mxGeometry width="60" height="30.43409090909091" as="geometry" />
        </mxCell>
        <mxCell id="oGka9AGOVdC37x4FYQGh-59" value="Application" style="swimlane;horizontal=0;whiteSpace=wrap;html=1;" vertex="1" parent="1">
          <mxGeometry x="40" y="220" width="80" height="70" as="geometry" />
        </mxCell>
        <mxCell id="oGka9AGOVdC37x4FYQGh-72" value="" style="group" vertex="1" connectable="0" parent="oGka9AGOVdC37x4FYQGh-59">
          <mxGeometry x="20" width="60" height="70" as="geometry" />
        </mxCell>
        <mxCell id="oGka9AGOVdC37x4FYQGh-70" value="&lt;font style=&quot;font-size: 11px;&quot; face=&quot;Comic Sans MS&quot;&gt;&lt;b style=&quot;&quot;&gt;&lt;span style=&quot;&quot;&gt;Query&lt;/span&gt;&lt;br&gt;&lt;span style=&quot;&quot;&gt;Brews&lt;/span&gt;&lt;br&gt;&lt;font style=&quot;font-size: 7px;&quot;&gt;1pt&lt;/font&gt;&lt;br&gt;&lt;/b&gt;&lt;/font&gt;" style="shape=trapezoid;perimeter=trapezoidPerimeter;whiteSpace=wrap;html=1;fixedSize=1;direction=west;fillColor=#fff2cc;gradientColor=#ffd966;strokeColor=#000000;size=10;verticalAlign=bottom;container=0;" vertex="1" parent="oGka9AGOVdC37x4FYQGh-72">
          <mxGeometry x="10.443956043956042" y="14.202898550724633" width="42.72527472527473" height="55.79710144927535" as="geometry" />
        </mxCell>
        <mxCell id="oGka9AGOVdC37x4FYQGh-69" value="" style="ellipse;shape=cloud;whiteSpace=wrap;html=1;fillColor=#fff2cc;gradientColor=#ffd966;strokeColor=#d6b656;container=0;" vertex="1" parent="oGka9AGOVdC37x4FYQGh-72">
          <mxGeometry width="60" height="30.43409090909091" as="geometry" />
        </mxCell>
        <mxCell id="oGka9AGOVdC37x4FYQGh-60" style="edgeStyle=orthogonalEdgeStyle;orthogonalLoop=1;jettySize=auto;html=1;exitX=1;exitY=0.25;exitDx=0;exitDy=0;entryX=0.458;entryY=0.005;entryDx=0;entryDy=0;entryPerimeter=0;startArrow=classic;startFill=1;sketch=1;curveFitting=1;jiggle=2;fillColor=#1ba1e2;strokeColor=#006EAF;rounded=1;" edge="1" parent="1" source="oGka9AGOVdC37x4FYQGh-26" target="oGka9AGOVdC37x4FYQGh-27">
          <mxGeometry relative="1" as="geometry" />
        </mxCell>
        <mxCell id="oGka9AGOVdC37x4FYQGh-61" style="edgeStyle=orthogonalEdgeStyle;rounded=1;orthogonalLoop=1;jettySize=auto;html=1;entryX=0.426;entryY=0.005;entryDx=0;entryDy=0;entryPerimeter=0;startArrow=classic;startFill=1;sketch=1;curveFitting=1;jiggle=2;fillColor=#1ba1e2;strokeColor=#006EAF;" edge="1" parent="1">
          <mxGeometry relative="1" as="geometry">
            <mxPoint x="490" y="260" as="sourcePoint" />
            <mxPoint x="439.12345189591406" y="310.3900000000001" as="targetPoint" />
            <Array as="points">
              <mxPoint x="439" y="260" />
            </Array>
          </mxGeometry>
        </mxCell>
        <mxCell id="oGka9AGOVdC37x4FYQGh-66" value="" style="shape=singleArrow;whiteSpace=wrap;html=1;sketch=1;curveFitting=1;jiggle=2;" vertex="1" parent="1">
          <mxGeometry x="130" y="285" width="60" height="30" as="geometry" />
        </mxCell>
        <mxCell id="oGka9AGOVdC37x4FYQGh-76" value="Standby" style="html=1;shadow=0;dashed=0;align=center;verticalAlign=middle;shape=mxgraph.arrows2.stripedArrow;dy=0.6;dx=40;notch=25;fillColor=#f5f5f5;gradientColor=#b3b3b3;strokeColor=#666666;gradientDirection=east;sketch=1;curveFitting=1;jiggle=2;" vertex="1" parent="1">
          <mxGeometry x="682.36" y="250" width="110.01" height="72.52" as="geometry" />
        </mxCell>
      </root>
    </mxGraphModel>
  </diagram>
</mxfile>
